<mxfile host="app.diagrams.net" modified="2023-05-31T07:36:10.015Z" agent="Mozilla/5.0 (Windows NT 10.0; Win64; x64) AppleWebKit/537.36 (KHTML, like Gecko) Chrome/113.0.0.0 Safari/537.36" version="21.3.5" etag="8c6k6KJpv3IOAjD4ZL3E" type="github">
  <diagram name="第 1 页" id="rVJhXOhjMb0LooOCVy6C">
    <mxGraphModel>
      <root>
        <mxCell id="0" />
        <mxCell id="1" parent="0" />
      </root>
    </mxGraphModel>
  </diagram>
</mxfile>
